<?xml version="1.0" encoding="utf-8"?>
<!-- Generator: Adobe Illustrator 21.1.0, SVG Export Plug-In . SVG Version: 6.00 Build 0)  -->
<svg version="1.1" id="Layer_1" xmlns="http://www.w3.org/2000/svg" xmlns:xlink="http://www.w3.org/1999/xlink" x="0px" y="0px"
	 viewBox="0 0 1024 466" style="enable-background:new 0 0 1024 466;" xml:space="preserve">
<style type="text/css">
	.st0{fill:#3D3D3C;}
	.st1{fill:#70706E;}
	.st2{fill:#098041;}
	.st3{fill:#E97626;}
</style>
<g id="XMLID_1_">
	<g id="XMLID_2_">
		<g id="XMLID_6_">
			<path id="XMLID_11_" class="st1" d="M740.7,305.6h-43.9l61-220.3h43.9L740.7,305.6z"/>
			<g id="XMLID_9_">
				<path id="XMLID_10_" class="st1" d="M717.9,92.2c-3-4.2-7.7-6.3-14.1-6.3H462.6l-11.9,43.2h43.9v0h175.5l-12.8,46.1H481.8l0-0.1
					h-43.9l-36.4,131.5h43.9l24.4-88.2h197.3c6.2,0,12-2.1,17.4-6.3c5.4-4.2,9-9.4,10.7-15.6l24.4-88.2
					C721.5,101.7,720.9,96.4,717.9,92.2z"/>
			</g>
			<path id="XMLID_7_" class="st1" d="M375.9,291.8c-2.4,8.7-10.4,14.8-19.4,14.8H130.2c-6.2,0-10.8-2.1-13.8-6.3
				c-3-4.2-3.7-9.4-1.9-15.6l55.2-198.8h43.9l-49.3,177.6h175.6l49.3-177.6h43.9L375.9,291.8z"/>
		</g>
		<g id="XMLID_3_">
			<polygon id="XMLID_5_" class="st2" points="877.5,85.7 933,196.1 816.3,306.5 			"/>
			<polygon id="XMLID_4_" class="st3" points="838.5,85.7 894,196.1 777.2,306.5 			"/>
		</g>
	</g>
</g>
</svg>
